HIERARCHY
ROOT Pelvis
{
	OFFSET 0.000000 0.000000 0.000000
	CHANNELS 6 Xposition Yposition Zposition Xrotation Yrotation Zrotation
	JOINT LeftUpLeg_virtual
	{
		OFFSET 0.000000 0.000000 0.000000
		CHANNELS 3 Xrotation Yrotation Zrotation
		JOINT LeftUpLeg
		{
			OFFSET 18.735201 -5.666702 -4.541200
			CHANNELS 3 Xrotation Yrotation Zrotation
			JOINT LeftLeg
			{
				OFFSET -0.021200 -31.938179 0.493100
				CHANNELS 3 Xrotation Yrotation Zrotation
				JOINT LeftFoot
				{
					OFFSET 0.021200 -31.938179 -4.336299
					CHANNELS 3 Xrotation Yrotation Zrotation
					JOINT LeftToeBase
					{
						OFFSET 0.943001 -26.722000 15.023500
						CHANNELS 3 Xrotation Yrotation Zrotation
						End Site
						{
							OFFSET 0 0 0
						}
					}
				}
			}
		}
	}
	JOINT RightUpLeg_virtual
	{
		OFFSET 0.000000 0.000000 0.000000
		CHANNELS 3 Xrotation Yrotation Zrotation
		JOINT RightUpLeg
		{
			OFFSET -18.735201 -5.666702 -4.541200
			CHANNELS 3 Xrotation Yrotation Zrotation
			JOINT RightLeg
			{
				OFFSET 0.018946 -31.938133 0.493100
				CHANNELS 3 Xrotation Yrotation Zrotation
				JOINT RightFoot
				{
					OFFSET -0.018946 -31.938126 -4.336299
					CHANNELS 3 Xrotation Yrotation Zrotation
					JOINT RightToeBase
					{
						OFFSET -0.943001 -26.722004 15.023500
						CHANNELS 3 Xrotation Yrotation Zrotation
						End Site
						{
							OFFSET 0 0 0
						}
					}
				}
			}
		}
	}
	JOINT Hips_virtual
	{
		OFFSET 0.000000 0.000000 0.000000
		CHANNELS 3 Xrotation Yrotation Zrotation
		JOINT Hips
		{
			OFFSET -0.000000 -0.000000 -0.000000
			CHANNELS 3 Xrotation Yrotation Zrotation
			JOINT Spine
			{
				OFFSET 0.000000 10.199997 -0.299500
				CHANNELS 3 Xrotation Yrotation Zrotation
				JOINT Spine1
				{
					OFFSET 0.000000 11.900002 -1.516600
					CHANNELS 3 Xrotation Yrotation Zrotation
					JOINT Spine2
					{
						OFFSET 0.000000 13.600006 -2.842500
						CHANNELS 3 Xrotation Yrotation Zrotation
						JOINT Neck_virtual
						{
							OFFSET 0.000000 0.000000 0.000000
							CHANNELS 3 Xrotation Yrotation Zrotation
							JOINT Neck
							{
								OFFSET 0.000000 9.624100 -2.890100
								CHANNELS 3 Xrotation Yrotation Zrotation
								JOINT Head
								{
									OFFSET 0.000000 14.068802 -1.351900
									CHANNELS 3 Xrotation Yrotation Zrotation
									End Site
									{
										OFFSET 0 0 0
									}
								}
							}
						}
						JOINT LeftShoulder_virtual
						{
							OFFSET 0.000000 0.000000 0.000000
							CHANNELS 3 Xrotation Yrotation Zrotation
							JOINT LeftShoulder
							{
								OFFSET 15.263000 10.923401 -0.547700
								CHANNELS 3 Xrotation Yrotation Zrotation
								JOINT LeftArm
								{
									OFFSET 25.438599 -2.830597 -13.032500
									CHANNELS 3 Xrotation Yrotation Zrotation
									JOINT LeftForeArm
									{
										OFFSET 29.960503 0.000000 0.000000
										CHANNELS 3 Xrotation Yrotation Zrotation
										JOINT LeftHand
										{
											OFFSET 27.849251 0.000000 0.000000
											CHANNELS 3 Xrotation Yrotation Zrotation
											End Site
											{
												OFFSET 0 0 0
											}
										}
									}
								}
							}
						}
						JOINT RightShoulder_virtual
						{
							OFFSET 0.000000 0.000000 0.000000
							CHANNELS 3 Xrotation Yrotation Zrotation
							JOINT RightShoulder
							{
								OFFSET -15.263000 10.923401 -0.547700
								CHANNELS 3 Xrotation Yrotation Zrotation
								JOINT RightArm
								{
									OFFSET -25.438599 -2.830597 -13.032500
									CHANNELS 3 Xrotation Yrotation Zrotation
									JOINT RightForeArm
									{
										OFFSET -29.960503 0.000000 0.000000
										CHANNELS 3 Xrotation Yrotation Zrotation
										JOINT RightHand
										{
											OFFSET -27.849251 0.000000 0.000000
											CHANNELS 3 Xrotation Yrotation Zrotation
											End Site
											{
												OFFSET 0 0 0
											}
										}
									}
								}
							}
						}
					}
				}
			}
		}
	}
}
MOTION
Frames: 10
Frame Time: 0.03333333
-0.101321 35.901695 -1.723427 0.000000 0.000000 0.000000 72.665508 -1.731055 -1.376524 3.969968 11.459331 1.202147 5.265298 4.987788 1.843117 -34.025885 0.645744 -1.482442 0.000000 0.000000 0.000000 72.665508 -1.731055 -1.376524 -6.043716 -7.641225 -1.589769 18.473061 2.671495 -1.317657 -28.073744 -0.159187 0.430166 0.000000 0.000000 0.000000 72.665508 -1.731055 -1.376524 0.000001 0.000000 0.000000 0.752803 -0.197005 0.598990 1.989908 -0.361037 0.703952 0.000000 0.000000 0.000000 1.989547 -0.369635 0.705793 -3.686016 -0.218883 1.279882 0.000000 0.000000 0.000000 1.989547 -0.369635 0.705793 1.107189 -1.022676 0.366517 -53.198134 -52.390163 -60.733769 0.000000 -9.465333 -0.000005 0.000000 0.000000 0.000000 1.989547 -0.369635 0.705793 1.721912 3.722435 14.170255 -57.852993 62.510424 58.216373 0.000000 10.622206 0.000003 0.000000 0.000000 0.000000 
-0.130370 35.983429 -1.769051 0.000000 0.000000 0.000000 72.721905 -1.736811 -1.383094 3.984769 11.431507 1.176158 5.012469 5.112650 1.875545 -33.989135 0.640310 -1.471355 0.000000 0.000000 0.000000 72.721905 -1.736811 -1.383094 -6.120731 -7.622020 -1.532146 18.415254 2.580191 -1.301944 -28.073403 -0.144176 0.381338 0.000000 0.000000 0.000000 72.721905 -1.736811 -1.383094 -0.000001 0.000000 0.000000 0.779468 -0.192374 0.588896 2.046994 -0.353058 0.686805 0.000000 0.000000 0.000000 2.059590 -0.360989 0.690020 -3.698465 -0.220799 1.284685 0.000000 0.000000 0.000000 2.059590 -0.360989 0.690020 1.109402 -1.047178 0.617680 -53.300187 -52.427241 -60.726092 0.000000 -9.495818 0.000004 0.000000 0.000000 0.000000 2.059590 -0.360989 0.690020 1.608448 4.068152 14.154881 -56.074750 61.951646 56.389195 0.000002 12.166839 0.000001 0.000000 0.000000 0.000000 
-0.167221 36.083241 -1.820526 0.000000 0.000000 0.000000 72.788998 -1.718356 -1.371672 4.127620 11.364058 1.097776 4.443070 5.227093 1.961764 -33.791627 0.635462 -1.482904 0.000000 0.000000 0.000000 72.788998 -1.718356 -1.371672 -6.234620 -7.580130 -1.485609 18.380973 2.479011 -1.304654 -28.070308 -0.135233 0.352106 0.000000 0.000000 0.000000 72.788998 -1.718356 -1.371672 -0.000002 0.000000 0.000000 0.817147 -0.192044 0.568528 2.128596 -0.354853 0.658856 0.000000 0.000000 0.000000 2.179328 -0.360895 0.666010 -3.702080 -0.221815 1.287512 0.000000 0.000000 0.000000 2.179328 -0.360895 0.666010 1.132607 -1.210562 1.194274 -52.684452 -52.210570 -60.149733 -0.000008 -10.381172 0.000006 0.000000 0.000000 0.000000 2.179328 -0.360895 0.666010 1.294704 4.985076 14.076854 -51.857323 60.370560 52.223978 0.000002 15.798716 -0.000015 0.000000 0.000000 0.000000 
-0.212295 36.197132 -1.886927 0.000000 0.000000 0.000000 72.858270 -1.686930 -1.344312 4.423295 11.294146 0.989498 3.544753 5.259467 2.068860 -33.449670 0.632395 -1.527183 0.000000 0.000000 0.000000 72.858270 -1.686930 -1.344312 -6.393667 -7.533043 -1.454981 18.410681 2.389807 -1.312336 -28.099946 -0.127091 0.325837 0.000000 0.000000 0.000000 72.858270 -1.686930 -1.344312 0.000000 0.000000 0.000000 0.862434 -0.197700 0.540617 2.229999 -0.368384 0.618093 0.000000 0.000000 0.000000 2.342983 -0.371417 0.631637 -3.698996 -0.224183 1.288621 0.000000 0.000000 0.000000 2.342983 -0.371417 0.631637 1.173355 -1.417819 2.041882 -51.809877 -51.949702 -59.390373 -0.000001 -11.541094 0.000001 0.000000 0.000000 0.000000 2.342983 -0.371417 0.631637 0.820155 6.380143 13.917257 -47.113412 58.088361 47.525399 -0.000000 20.057984 -0.000013 0.000000 0.000000 0.000000 
-0.266353 36.335754 -1.990746 0.000000 0.000000 0.000000 72.959179 -1.633111 -1.346143 4.863610 11.251096 0.907424 2.248032 5.192367 2.192088 -32.981078 0.638294 -1.622021 0.000000 0.000000 0.000000 72.959179 -1.633111 -1.346143 -6.600014 -7.436478 -1.367620 18.460359 2.234351 -1.332611 -28.173531 -0.120941 0.299783 0.000000 0.000000 0.000000 72.959179 -1.633111 -1.346143 0.000001 0.000000 0.000000 0.913833 -0.213453 0.508877 2.349863 -0.402081 0.579622 0.000000 0.000000 0.000000 2.548187 -0.401090 0.601895 -3.702551 -0.228129 1.291065 0.000000 0.000000 0.000000 2.548187 -0.401090 0.601895 1.227719 -1.531619 3.079354 -51.125171 -51.689523 -58.799002 -0.000006 -12.745214 0.000004 0.000000 0.000000 0.000000 2.548187 -0.401090 0.601895 0.225594 8.167538 13.717603 -42.646629 55.303516 42.993302 0.000002 24.402744 0.000003 0.000000 0.000000 0.000000 
-0.330682 36.503723 -2.162788 0.000000 0.000000 0.000000 73.137638 -1.551677 -1.372491 5.607879 11.187745 0.786949 0.158042 5.126723 2.353977 -32.268679 0.652230 -1.770195 0.000000 0.000000 0.000000 73.137638 -1.551677 -1.372491 -6.842454 -7.281269 -1.220485 18.452220 1.983655 -1.368364 -28.371960 -0.122055 0.282428 0.000000 0.000000 0.000000 73.137638 -1.551677 -1.372491 0.000000 0.000000 0.000000 0.968073 -0.230531 0.474526 2.478550 -0.439070 0.545993 0.000000 0.000000 0.000000 2.784365 -0.433118 0.579358 -3.722389 -0.232368 1.288728 0.000000 0.000000 0.000000 2.784365 -0.433118 0.579358 1.311953 -1.716130 4.262660 -50.037495 -51.217666 -57.774330 0.000003 -14.652972 -0.000008 0.000000 0.000000 0.000000 2.784365 -0.433118 0.579358 -0.446497 10.243898 13.474438 -38.494649 52.132734 38.615349 -0.000009 28.874522 -0.000019 0.000000 0.000000 0.000000 
-0.413561 36.704445 -2.410240 0.000000 0.000000 0.000000 73.350979 -1.453692 -1.388043 7.365714 11.083817 0.411724 -3.982145 5.094574 2.552850 -30.763138 0.604524 -1.824492 0.000000 0.000000 0.000000 73.350979 -1.453692 -1.388043 -7.010588 -7.137056 -1.068245 18.279955 1.701396 -1.382575 -28.731563 -0.127439 0.266231 0.000000 0.000000 0.000000 73.350979 -1.453692 -1.388043 -0.000001 0.000000 0.000000 1.035135 -0.238003 0.433072 2.633894 -0.457497 0.506397 0.000000 0.000000 0.000000 3.068078 -0.445781 0.553129 -3.750121 -0.233905 1.277349 0.000000 0.000000 0.000000 3.068078 -0.445781 0.553129 1.434961 -2.147436 5.717647 -48.544275 -50.502060 -56.295273 0.000005 -16.998237 -0.000019 0.000000 0.000000 0.000000 3.068078 -0.445781 0.553129 -1.152772 12.461024 13.201058 -34.891393 48.824678 34.582908 -0.000001 33.170373 0.000015 0.000000 0.000000 0.000000 
-0.531686 36.986588 -2.705330 0.000000 0.000000 0.000000 73.559423 -1.388271 -1.391793 9.456246 10.888856 -0.135297 -8.812667 5.257226 2.831754 -29.125877 0.505186 -1.739222 0.000000 0.000000 0.000000 73.559423 -1.388271 -1.391793 -7.088422 -6.967869 -0.871470 17.871187 1.365576 -1.386882 -29.115242 -0.129635 0.228599 0.000000 0.000000 0.000000 73.559423 -1.388271 -1.391793 0.000000 0.000000 0.000000 1.122848 -0.239677 0.373043 2.835673 -0.467307 0.468058 0.000000 0.000000 0.000000 3.418127 -0.449114 0.530220 -3.777083 -0.226628 1.264040 0.000000 0.000000 0.000000 3.418127 -0.449114 0.530220 1.598252 -2.775610 7.377216 -47.108351 -49.668091 -54.686842 0.000005 -19.107734 0.000001 0.000000 0.000000 0.000000 3.418127 -0.449114 0.530220 -1.871500 14.813719 12.973787 -32.198919 45.616801 31.148996 -0.000008 36.789216 0.000002 0.000000 0.000000 0.000000 
-0.687367 37.401516 -3.088806 0.000000 0.000000 0.000000 73.794156 -1.364876 -1.406874 8.965561 10.498743 -0.303032 -8.892788 5.863352 3.264955 -29.838160 0.465998 -1.691306 0.000000 0.000000 0.000000 73.794156 -1.364876 -1.406874 -7.352823 -6.687203 -0.563035 17.574890 0.878681 -1.449564 -29.588444 -0.124209 0.149382 0.000000 0.000000 0.000000 73.794156 -1.364876 -1.406874 0.000001 0.000000 0.000000 1.239339 -0.239170 0.310904 3.102218 -0.471637 0.423553 0.000000 0.000000 0.000000 3.851825 -0.446384 0.503032 -3.820662 -0.212032 1.252145 0.000000 0.000000 0.000000 3.851825 -0.446384 0.503032 1.797079 -3.608155 8.970019 -45.710519 -48.668650 -52.723924 0.000015 -21.053913 0.000007 0.000000 0.000000 0.000000 3.851825 -0.446384 0.503032 -2.581134 17.315754 12.798580 -30.363562 42.587186 28.150258 -0.000006 39.724916 -0.000001 0.000000 0.000000 0.000000 
-0.871857 37.950951 -3.580444 0.000000 0.000000 0.000000 74.061189 -1.300831 -1.425705 8.271052 9.954157 -0.484141 -8.989040 6.542274 3.827241 -30.352736 0.388237 -1.587522 0.000000 0.000000 0.000000 74.061189 -1.300831 -1.425705 -7.795536 -6.383391 -0.200721 17.385975 0.275185 -1.518717 -30.152553 -0.111300 0.038215 0.000000 0.000000 0.000000 74.061189 -1.300831 -1.425705 0.000000 0.000000 0.000000 1.403830 -0.232486 0.252188 3.467591 -0.461030 0.357160 0.000000 0.000000 0.000000 4.402144 -0.428418 0.455605 -3.894407 -0.197424 1.227498 0.000000 0.000000 0.000000 4.402144 -0.428418 0.455605 2.028957 -4.698961 10.572593 -44.312020 -47.460116 -50.353746 0.000005 -22.987116 0.000012 0.000000 0.000000 0.000000 4.402144 -0.428418 0.455605 -3.220816 19.739658 12.565975 -29.056359 39.908775 25.264086 -0.000000 42.182323 -0.000014 0.000000 0.000000 0.000000 
